<mxfile host="app.diagrams.net" modified="2023-11-02T13:07:03.947Z" agent="Mozilla/5.0 (Windows NT 10.0; Win64; x64) AppleWebKit/537.36 (KHTML, like Gecko) Chrome/118.0.0.0 Safari/537.36" etag="-qiGcxh3yGKbvwZ_egtt" version="22.0.8" type="github" pages="2">
  <diagram name="第 1 页" id="HdRl2YGbc42Iuh6aecqo">
    <mxGraphModel dx="1690" dy="972" grid="0" gridSize="10" guides="1" tooltips="1" connect="1" arrows="1" fold="1" page="0" pageScale="1" pageWidth="827" pageHeight="1169" math="0" shadow="0">
      <root>
        <mxCell id="0" />
        <mxCell id="1" parent="0" />
        <mxCell id="xssw1aRKkbNy5G8T9aDr-10" value="" style="edgeStyle=none;curved=1;rounded=0;orthogonalLoop=1;jettySize=auto;html=1;fontSize=12;startSize=8;endSize=8;" edge="1" parent="1" source="xssw1aRKkbNy5G8T9aDr-4" target="xssw1aRKkbNy5G8T9aDr-9">
          <mxGeometry relative="1" as="geometry" />
        </mxCell>
        <mxCell id="xssw1aRKkbNy5G8T9aDr-21" value="" style="edgeStyle=none;curved=1;rounded=0;orthogonalLoop=1;jettySize=auto;html=1;fontSize=12;startSize=8;endSize=8;" edge="1" parent="1" source="xssw1aRKkbNy5G8T9aDr-4" target="xssw1aRKkbNy5G8T9aDr-20">
          <mxGeometry relative="1" as="geometry" />
        </mxCell>
        <mxCell id="xssw1aRKkbNy5G8T9aDr-4" value="ui.btnDistance-&amp;gt;text() == &quot;Distance&quot;" style="rhombus;whiteSpace=wrap;html=1;fontSize=16;rounded=0;" vertex="1" parent="1">
          <mxGeometry x="-74" y="-101" width="322" height="58" as="geometry" />
        </mxCell>
        <mxCell id="xssw1aRKkbNy5G8T9aDr-12" value="" style="edgeStyle=none;curved=1;rounded=0;orthogonalLoop=1;jettySize=auto;html=1;fontSize=12;startSize=8;endSize=8;" edge="1" parent="1" source="xssw1aRKkbNy5G8T9aDr-9" target="xssw1aRKkbNy5G8T9aDr-11">
          <mxGeometry relative="1" as="geometry" />
        </mxCell>
        <mxCell id="xssw1aRKkbNy5G8T9aDr-26" value="" style="edgeStyle=none;curved=1;rounded=0;orthogonalLoop=1;jettySize=auto;html=1;fontSize=12;startSize=8;endSize=8;" edge="1" parent="1" source="xssw1aRKkbNy5G8T9aDr-9" target="xssw1aRKkbNy5G8T9aDr-23">
          <mxGeometry relative="1" as="geometry" />
        </mxCell>
        <mxCell id="xssw1aRKkbNy5G8T9aDr-9" value="ui.btnDistance-&amp;gt;text() == &quot;measuringBidimension&quot;" style="rhombus;whiteSpace=wrap;html=1;fontSize=16;rounded=0;" vertex="1" parent="1">
          <mxGeometry x="-74" y="-16" width="322" height="58" as="geometry" />
        </mxCell>
        <mxCell id="xssw1aRKkbNy5G8T9aDr-14" value="" style="edgeStyle=none;curved=1;rounded=0;orthogonalLoop=1;jettySize=auto;html=1;fontSize=12;startSize=8;endSize=8;" edge="1" parent="1" source="xssw1aRKkbNy5G8T9aDr-11" target="xssw1aRKkbNy5G8T9aDr-13">
          <mxGeometry relative="1" as="geometry" />
        </mxCell>
        <mxCell id="xssw1aRKkbNy5G8T9aDr-27" value="" style="edgeStyle=none;curved=1;rounded=0;orthogonalLoop=1;jettySize=auto;html=1;fontSize=12;startSize=8;endSize=8;" edge="1" parent="1" source="xssw1aRKkbNy5G8T9aDr-11" target="xssw1aRKkbNy5G8T9aDr-24">
          <mxGeometry relative="1" as="geometry" />
        </mxCell>
        <mxCell id="xssw1aRKkbNy5G8T9aDr-11" value="ui.btnDistance-&amp;gt;text() == &quot;measuringDistance&quot;" style="rhombus;whiteSpace=wrap;html=1;fontSize=16;rounded=0;" vertex="1" parent="1">
          <mxGeometry x="-74" y="69" width="322" height="58" as="geometry" />
        </mxCell>
        <mxCell id="xssw1aRKkbNy5G8T9aDr-28" value="" style="edgeStyle=none;curved=1;rounded=0;orthogonalLoop=1;jettySize=auto;html=1;fontSize=12;startSize=8;endSize=8;" edge="1" parent="1" source="xssw1aRKkbNy5G8T9aDr-13" target="xssw1aRKkbNy5G8T9aDr-25">
          <mxGeometry relative="1" as="geometry" />
        </mxCell>
        <mxCell id="xssw1aRKkbNy5G8T9aDr-32" value="" style="edgeStyle=none;curved=1;rounded=0;orthogonalLoop=1;jettySize=auto;html=1;fontSize=12;startSize=8;endSize=8;" edge="1" parent="1" source="xssw1aRKkbNy5G8T9aDr-13" target="xssw1aRKkbNy5G8T9aDr-31">
          <mxGeometry relative="1" as="geometry" />
        </mxCell>
        <mxCell id="xssw1aRKkbNy5G8T9aDr-13" value="ui.btnDistance-&amp;gt;text() == &lt;br&gt;&quot;measuringAngel&quot;" style="rhombus;whiteSpace=wrap;html=1;fontSize=16;rounded=0;" vertex="1" parent="1">
          <mxGeometry x="-74" y="154" width="322" height="58" as="geometry" />
        </mxCell>
        <mxCell id="xssw1aRKkbNy5G8T9aDr-15" value="No" style="text;html=1;strokeColor=none;fillColor=none;align=center;verticalAlign=middle;whiteSpace=wrap;rounded=0;fontSize=16;" vertex="1" parent="1">
          <mxGeometry x="81" y="-46" width="60" height="30" as="geometry" />
        </mxCell>
        <mxCell id="xssw1aRKkbNy5G8T9aDr-17" value="No" style="text;html=1;strokeColor=none;fillColor=none;align=center;verticalAlign=middle;whiteSpace=wrap;rounded=0;fontSize=16;" vertex="1" parent="1">
          <mxGeometry x="81" y="39" width="60" height="30" as="geometry" />
        </mxCell>
        <mxCell id="xssw1aRKkbNy5G8T9aDr-18" value="No" style="text;html=1;strokeColor=none;fillColor=none;align=center;verticalAlign=middle;whiteSpace=wrap;rounded=0;fontSize=16;" vertex="1" parent="1">
          <mxGeometry x="81" y="127" width="60" height="30" as="geometry" />
        </mxCell>
        <mxCell id="xssw1aRKkbNy5G8T9aDr-19" value="No" style="text;html=1;strokeColor=none;fillColor=none;align=center;verticalAlign=middle;whiteSpace=wrap;rounded=0;fontSize=16;" vertex="1" parent="1">
          <mxGeometry x="81" y="209" width="60" height="30" as="geometry" />
        </mxCell>
        <mxCell id="xssw1aRKkbNy5G8T9aDr-20" value="&lt;div&gt;三个二维视图调用changeLeftPress1()&lt;/div&gt;&lt;div&gt;&lt;span style=&quot;background-color: initial;&quot;&gt;设置按钮文本为&lt;/span&gt;&lt;span style=&quot;background-color: initial;&quot;&gt;&quot;measuringBidimension&quot;&lt;/span&gt;&lt;/div&gt;" style="whiteSpace=wrap;html=1;fontSize=16;rounded=0;" vertex="1" parent="1">
          <mxGeometry x="279" y="-105.5" width="356" height="67" as="geometry" />
        </mxCell>
        <mxCell id="xssw1aRKkbNy5G8T9aDr-23" value="&lt;div&gt;三个二维视图调用changeLeftPress2()&lt;/div&gt;&lt;div&gt;&lt;span style=&quot;background-color: initial;&quot;&gt;设置按钮文本为&lt;/span&gt;&lt;span style=&quot;background-color: initial;&quot;&gt;&quot;measuringDistance&quot;&lt;/span&gt;&lt;/div&gt;" style="whiteSpace=wrap;html=1;fontSize=16;rounded=0;" vertex="1" parent="1">
          <mxGeometry x="279" y="-20.5" width="356" height="67" as="geometry" />
        </mxCell>
        <mxCell id="xssw1aRKkbNy5G8T9aDr-24" value="&lt;div&gt;三个二维视图调用changeLeftPress3()&lt;/div&gt;&lt;div&gt;&lt;span style=&quot;background-color: initial;&quot;&gt;设置按钮文本为&lt;/span&gt;&lt;span style=&quot;background-color: initial;&quot;&gt;&quot;measuringAngle&quot;&lt;/span&gt;&lt;/div&gt;" style="whiteSpace=wrap;html=1;fontSize=16;rounded=0;" vertex="1" parent="1">
          <mxGeometry x="283" y="64.5" width="356" height="67" as="geometry" />
        </mxCell>
        <mxCell id="xssw1aRKkbNy5G8T9aDr-25" value="&lt;div&gt;三个二维视图调用changeLeftPress4()&lt;/div&gt;&lt;div&gt;&lt;span style=&quot;background-color: initial;&quot;&gt;设置按钮文本为&lt;/span&gt;&lt;span style=&quot;background-color: initial;&quot;&gt;&quot;Distance&quot;&lt;/span&gt;&lt;/div&gt;" style="whiteSpace=wrap;html=1;fontSize=16;rounded=0;" vertex="1" parent="1">
          <mxGeometry x="279" y="149.5" width="356" height="67" as="geometry" />
        </mxCell>
        <mxCell id="xssw1aRKkbNy5G8T9aDr-31" value="end" style="rounded=1;whiteSpace=wrap;html=1;fontSize=16;" vertex="1" parent="1">
          <mxGeometry x="27" y="243" width="120" height="60" as="geometry" />
        </mxCell>
        <mxCell id="xssw1aRKkbNy5G8T9aDr-35" value="" style="edgeStyle=none;curved=1;rounded=0;orthogonalLoop=1;jettySize=auto;html=1;fontSize=12;startSize=8;endSize=8;entryX=0.5;entryY=0;entryDx=0;entryDy=0;" edge="1" parent="1" source="xssw1aRKkbNy5G8T9aDr-33" target="xssw1aRKkbNy5G8T9aDr-4">
          <mxGeometry relative="1" as="geometry" />
        </mxCell>
        <mxCell id="xssw1aRKkbNy5G8T9aDr-33" value="void Medical3D::Distance()" style="rounded=1;whiteSpace=wrap;html=1;fontSize=16;" vertex="1" parent="1">
          <mxGeometry x="-31.5" y="-183" width="237" height="44" as="geometry" />
        </mxCell>
      </root>
    </mxGraphModel>
  </diagram>
  <diagram id="i5yMb0C_HJSUXAQU9Rcx" name="第 2 页">
    <mxGraphModel dx="1690" dy="972" grid="0" gridSize="10" guides="1" tooltips="1" connect="1" arrows="1" fold="1" page="0" pageScale="1" pageWidth="827" pageHeight="1169" math="0" shadow="0">
      <root>
        <mxCell id="0" />
        <mxCell id="1" parent="0" />
        <mxCell id="fdVgMe3mNUPzpcdjmAQa-2" value="vtkBiDimensionalCallback" style="swimlane;fontStyle=1;align=center;verticalAlign=top;childLayout=stackLayout;horizontal=1;startSize=26;horizontalStack=0;resizeParent=1;resizeParentMax=0;resizeLast=0;collapsible=1;marginBottom=0;whiteSpace=wrap;html=1;fontSize=16;" vertex="1" parent="1">
          <mxGeometry x="-211" y="-29" width="282" height="108" as="geometry" />
        </mxCell>
        <mxCell id="fdVgMe3mNUPzpcdjmAQa-4" value="" style="line;strokeWidth=1;fillColor=none;align=left;verticalAlign=middle;spacingTop=-1;spacingLeft=3;spacingRight=3;rotatable=0;labelPosition=right;points=[];portConstraint=eastwest;strokeColor=inherit;fontSize=16;" vertex="1" parent="fdVgMe3mNUPzpcdjmAQa-2">
          <mxGeometry y="26" width="282" height="8" as="geometry" />
        </mxCell>
        <mxCell id="fdVgMe3mNUPzpcdjmAQa-5" value="+ New()：vtkBiDimensionalCallback*&lt;br&gt;+ Execute()&lt;br&gt;+ vtkBiDimensionalCallback()" style="text;strokeColor=none;fillColor=none;align=left;verticalAlign=top;spacingLeft=4;spacingRight=4;overflow=hidden;rotatable=0;points=[[0,0.5],[1,0.5]];portConstraint=eastwest;whiteSpace=wrap;html=1;fontSize=16;" vertex="1" parent="fdVgMe3mNUPzpcdjmAQa-2">
          <mxGeometry y="34" width="282" height="74" as="geometry" />
        </mxCell>
      </root>
    </mxGraphModel>
  </diagram>
</mxfile>
